<svg version="1" xmlns="http://www.w3.org/2000/svg" width="933.333" height="933.333" viewBox="0 0 700.000000 700.000000"><path d="M393.5 161.4c-13.5 19-24.5 34.7-24.5 35 0 .3 35.8.6 79.5.6H528v-11.8c0-6.4.3-22.2.7-35l.6-23.2H418l-24.5 34.4zM303.8 287.8c-28.4 40-82.5 116.1-120.3 169.2l-68.6 96.5 13.3.3c7.3.2 27.7 0 45.4-.3l32.1-.7 26.7-37.4 26.7-37.4H436v75h86v-7.3c0-3.9.5-33.1 1-64.7 2.7-153.3 4-233 4-248.8V215H355.5l-51.7 72.8zm138 31.6c-.2 52.5-.6 95.7-.9 96-.3.3-30.8.5-67.8.4l-67.1-.3 24.2-34.6c79.4-113 110.4-156.8 111.1-156.9.4 0 .6 42.9.5 95.4z"/></svg>